<?xml version="1.0" encoding="iso-8859-1"?>
<!-- Generator: Adobe Illustrator 19.0.0, SVG Export Plug-In . SVG Version: 6.00 Build 0)  -->
<svg version="1.1" id="Capa_1" xmlns="http://www.w3.org/2000/svg" xmlns:xlink="http://www.w3.org/1999/xlink" x="0px" y="0px"
	 viewBox="0 0 415.452 415.452" style="enable-background:new 0 0 415.452 415.452;" xml:space="preserve">
<g>
	<g>
		<path d="M384.211,79.01c-0.8-0.8-0.8-1.6-1.6-1.6c-0.8-0.8-0.8-0.8-1.6-1.6c-23.2-19.2-54.4-25.6-88-17.6c-32.8,7.2-64,28-88,56.8
			c-4,4.8-8,10.4-11.2,15.2c-23.2-35.2-56.8-54.4-92-52.8c-0.8,0-0.8,0-1.6,0s-2.4,0-3.2,0c-29.6,3.2-56,20.8-74.4,49.6
			c-17.6,28.8-25.6,64.8-21.6,102.4c3.2,37.6,18.4,71.2,40.8,96c21.6,23.2,47.2,35.2,74.4,35.2c3.2,0,5.6,0,8.8-0.8
			c0.8,0,1.6,0,1.6,0s0,0,0.8,0c32.8-4,60.8-26.4,78.4-60.8c16,11.2,35.2,16.8,55.2,16.8c40,0,83.2-20.8,115.2-60
			c24-28.8,37.6-63.2,39.2-96.8C416.211,126.21,405.011,98.21,384.211,79.01z M53.811,314.21c-20.8-21.6-33.6-52.8-36.8-86.4
			c-3.2-33.6,4-66.4,20-92c15.2-24.8,37.6-40,62.4-42.4c28.8,16.8,20,48,4,98.4c-15.2,48-34.4,106.4,4,152
			C88.211,341.41,69.011,331.81,53.811,314.21z M129.011,343.01c-44-40-27.2-94.4-10.4-146.4c12-36.8,24-75.2,6.4-100.8
			c23.2,6.4,44.8,24,60,50.4c-27.2,51.2-24.8,108,8,142.4C178.611,318.21,155.411,338.21,129.011,343.01z M199.411,271.81
			c-28-36.8-21.6-98.4,18.4-146.4c21.6-26.4,49.6-44.8,79.2-51.2c8-1.6,16-3.2,24-3.2c19.2,0,36.8,5.6,50.4,16.8
			c8.8,32-20,48.8-66.4,72.8C259.411,183.81,205.011,211.81,199.411,271.81z M399.411,158.21c-1.6,30.4-14.4,61.6-36,87.2
			c-42.4,51.2-107.2,68.8-148,40.8c-2.4-60,47.2-85.6,96.8-111.2c34.4-17.6,70.4-36,76-66.4
			C396.211,122.21,400.211,139.81,399.411,158.21z"/>
	</g>
</g>
<g>
</g>
<g>
</g>
<g>
</g>
<g>
</g>
<g>
</g>
<g>
</g>
<g>
</g>
<g>
</g>
<g>
</g>
<g>
</g>
<g>
</g>
<g>
</g>
<g>
</g>
<g>
</g>
<g>
</g>
</svg>
